<?xml version="1.0" encoding="UTF-8"?>
<svg width="180" height="180" version="1.1" viewBox="0 0 180 180" xmlns="http://www.w3.org/2000/svg" xmlns:xlink="http://www.w3.org/1999/xlink">
 <defs>
  <linearGradient id="bg" x2="0" y2="180" gradientUnits="userSpaceOnUse">
   <stop stop-color="#428aa6" offset="0"/>
   <stop stop-color="#7c2d12" offset="1"/>
  </linearGradient>
  <linearGradient id="linearGradient27" x1="86.942" x2="83.489" y1="45.877" y2="144.33" gradientUnits="userSpaceOnUse">
   <stop stop-color="#d9cc84" offset="0"/>
   <stop stop-color="#dacc8e" stop-opacity=".4395" offset="1"/>
  </linearGradient>
 </defs>
 <rect width="180" height="180" rx="38" fill="url(#bg)"/>
 <path d="m23.999 38.857a4 4 0 0 0-3.9297 2.8789 4 4 0 0 0 2.7168 4.9609c5.982 1.7482 14.126 3.0953 23.689 4.0371-0.38254 4.1164-0.57879 8.0463-0.64258 11.83a6 5 0 0 0-2.9258 4.293 6 5 0 0 0 2.9922 4.3262c0.10187 3.2903 0.28198 6.487 0.49609 9.6211a6 5 0 0 0-2.4883 4.0527 6 5 0 0 0 3.1309 4.3906c0.25196 3.1425 0.50107 6.2524 0.70312 9.3633a6 5 0 0 0-2.834 4.2461 6 5 0 0 0 3.2383 4.4375c0.16111 6.7575-0.0917 13.679-1.2051 21.119a3 3 0 0 0 2.5234 3.4102 3 3 0 0 0 3.4102-2.5234c1.1879-7.9385 1.4732-15.234 1.3242-22.262a6 5 0 0 0 2.709-4.1816 6 5 0 0 0-3.0801-4.3691c-0.19552-3.1504-0.44152-6.2752-0.69336-9.4141a6 5 0 0 0 2.7734-4.2168 6 5 0 0 0-3.4492-4.5254c-0.21064-3.0059-0.38914-6.0529-0.49805-9.1699a6 5 0 0 0 2.9473-4.3047 6 5 0 0 0-3.043-4.3516c0.0533-3.6161 0.23337-7.3514 0.5918-11.248 7.4931 0.57601 15.683 0.9268 24.268 1.0527-0.36602 5.4558-0.56654 10.848-0.6504 16.141a6 5 0 0 0-3.166 4.4062 6 5 0 0 0 3.127 4.3887c0.0573 9.0748 0.39434 17.793 0.75391 25.977a6 5 0 0 0-1.8809 3.6348 6 5 0 0 0 2.2168 3.8809c0.31166 6.9977 0.57757 13.525 0.61523 19.457a6 5 0 0 0-3.832 4.6621 6 5 0 0 0 3.6543 4.6016c-0.12831 2.4849-0.33079 4.8203-0.62696 6.9922a3 3 0 0 0 2.5684 3.3789 3 3 0 0 0 3.377-2.5664c0.363-2.6619 0.60215-5.4947 0.7461-8.4824a6 5 0 0 0 2.2812-3.9238 6 5 0 0 0-2.1035-3.8027c0.0107-6.0651-0.23033-12.632-0.53711-19.6a6 5 0 0 0 3.6406-4.5977 6 5 0 0 0-4.0644-4.7324c-0.35747-7.9587-0.69492-16.342-0.76954-25.02a6 5 0 0 0 2.834-4.248 6 5 0 0 0-2.8164-4.2383c0.0725-5.3369 0.27069-10.766 0.64453-16.258 7.7674 0.01668 15.763-0.15687 23.75-0.54102-0.51709 4.4411-0.7189 8.6864-0.71679 12.775a6 5 0 0 0-2.8613 4.2617 6 5 0 0 0 3.1426 4.3965c0.27878 4.5845 0.7255 8.9917 1.1523 13.287 0.13831 1.3919 0.27412 2.7719 0.40234 4.1426a6 5 0 0 0-2.6973 4.1738 6 5 0 0 0 3.3535 4.4883c0.35247 6.9001 0.17887 13.732-1.291 20.91a3 3 0 0 0 2.3359 3.541 3 3 0 0 0 3.541-2.3379c1.6051-7.8385 1.7818-15.221 1.4102-22.453a6 5 0 0 0 2.6504-4.1484 6 5 0 0 0-3.3027-4.4668c-0.13824-1.4808-0.28444-2.9601-0.43164-4.4414-0.42057-4.2324-0.84675-8.4809-1.1172-12.834a6 5 0 0 0 2.8516-4.2578 6 5 0 0 0-3.1367-4.3945c2e-3 -4.1671 0.22684-8.47 0.80078-12.977 7.8569-0.48547 15.645-1.1792 23.135-2.1016-0.40756 5.8027-0.57336 11.492-0.57813 17.041a6 5 0 0 0-3.2207 4.4316 6 5 0 0 0 3.3418 4.4824c0.21124 7.7699 0.66752 15.212 1.125 22.242a6 5 0 0 0-1.4668 3.2754 6 5 0 0 0 1.918 3.6641c0.35583 5.5574 0.65843 10.814 0.77148 15.721a6 5 0 0 0-3.6894 4.6152 6 5 0 0 0 3.6289 4.5938c-0.10752 2.4536-0.30009 4.7892-0.60157 7a3 3 0 0 0 2.5684 3.3789 3 3 0 0 0 3.377-2.5664c0.36867-2.7035 0.59541-5.5276 0.71485-8.4629a6 5 0 0 0 2.3125-3.9434 6 5 0 0 0-2.2227-3.8848c-0.0667-4.8968-0.33107-10.052-0.66406-15.436a6 5 0 0 0 3.8867-4.6797 6 5 0 0 0-4.5059-4.8418c-0.44332-6.7289-0.88334-13.759-1.1016-21.035a6 5 0 0 0 2.6074-4.123 6 5 0 0 0-2.748-4.2012c-0.017-5.8927 0.15448-11.928 0.6211-18.08 3.7255-0.53429 7.3576-1.1294 10.865-1.7871a4 4 0 0 0 3.1934-4.668 4 4 0 0 0-4.668-3.1953c-20.945 3.9272-47.083 5.5926-70.697 5.4258-23.614-0.16687-44.937-2.2637-55.443-5.334a4 4 0 0 0-1.0312-0.16016z" fill="url(#linearGradient27)" stop-color="#000000" stroke-linecap="round"/>
</svg>
